<?xml version="1.0" encoding="utf-8"?>
<!-- Generator: Adobe Illustrator 19.2.1, SVG Export Plug-In . SVG Version: 6.00 Build 0)  -->
<svg version="1.1" id="layer" xmlns="http://www.w3.org/2000/svg" xmlns:xlink="http://www.w3.org/1999/xlink" x="0px" y="0px"
	 viewBox="0 0 652 652" style="enable-background:new 0 0 652 652;" xml:space="preserve">
<style type="text/css">
	.st0{fill:#181819;}
	.st1{fill:#FFFFFF;}
</style>
<path class="st0" d="M323,353.7H309l-3.3-11.7h-20.1l-3.2,11.7h-14.1l18.3-60.1h18.1L323,353.7z M288.6,330.7h13.8l-6.9-25.2
	L288.6,330.7z"/>
<g>
	<path class="st0" d="M341.9,326.9v26.8h-13v-44h10.8l0.9,4.2c2.7-1.8,8.3-4.4,11.8-5.1l1.1,12.3
		C349.7,322.7,344.7,324.9,341.9,326.9"/>
	<path class="st0" d="M369.9,336.9c0,4.5,1.9,6.6,7.1,6.6c3.3,0,5.9-0.4,9-1.1l1.6,10.8c-4.4,1-7.6,1.3-10.7,1.3
		c-14.3,0-20.1-5.3-20.1-17.9v-10c0-12.6,5.9-17.9,20.1-17.9c3.1,0,6.2,0.4,10.7,1.4l-1.6,10.8c-2.7-0.6-6.5-1.1-9-1.1
		c-5.2,0-7.1,2.1-7.1,6.6V336.9z"/>
	<path class="st0" d="M421,353.7v-29.1c0-2-0.9-3.2-3.2-3.2c-2.4,0-6.7,1.8-9.5,3.3v29h-13v-61.9l12.8-1.8v22.9
		c5.3-2.4,10.7-4.1,15.7-4.1c7.5,0,10.1,5.6,10.1,14.1v30.8H421z"/>
	<path class="st0" d="M444.4,290.4h13v13.8h-13V290.4z M444.4,309.8h13v44h-13V309.8z"/>
	<path class="st0" d="M493.9,353.7v-29.1c0-2-0.9-3.2-3.2-3.2c-2.4,0-6.7,1.6-9.5,3.2v29.1h-13v-44h9.7l1.4,3.3
		c5.4-2.6,12.5-4.2,17.5-4.2c7.5,0,10.1,5.6,10.1,14.1v30.8H493.9z"/>
	<path class="st0" d="M528,336.3v1.3c0,5.1,2,6.4,8,6.4c4.1,0,9.5-0.7,13.4-1.9l1.9,9.8c-4,1.4-10.4,2.8-16.5,2.8
		c-14.3,0-19.7-7-19.7-17.9v-10.3c0-9.5,4.2-17.6,18.9-17.6c14.6,0,17.8,8.7,17.8,18.2v9.2H528z M539.4,324.6c0-3.1-0.9-5.6-5.4-5.6
		c-4.5,0-6,2.5-6,5.6v1.9h11.4V324.6z"/>
	<path class="st0" d="M570.6,336.9c0,4.5,1.9,6.6,7.1,6.6c3.3,0,5.9-0.4,9-1.1l1.6,10.8c-4.4,1-7.6,1.3-10.7,1.3
		c-14.3,0-20.1-5.3-20.1-17.9v-10c0-12.6,5.9-17.9,20.1-17.9c3.1,0,6.2,0.4,10.7,1.4l-1.6,10.8c-2.7-0.6-6.5-1.1-9-1.1
		c-5.2,0-7.1,2.1-7.1,6.6V336.9z"/>
	<path class="st0" d="M610.9,354.6c-8.4,0-13.3-3.2-13.3-11.3v-23.1h-6v-10.5h6v-10.6l13-1.8v12.4h10l-0.7,10.5h-9.3v21.3
		c0,1.8,1.1,2.4,2.7,2.4c1.4,0,3.5-0.2,5.4-0.8l1.5,9.8C617.4,354,613.9,354.6,610.9,354.6"/>
	<path class="st0" d="M220.9,322.3c0,55.3-44.8,100.1-100.1,100.1c-55.3,0-100.1-44.8-100.1-100.1c0-55.3,44.8-100.1,100.1-100.1
		C176,222.2,220.9,267,220.9,322.3"/>
	<polygon class="st1" points="189.1,371.3 151.7,371.3 107,251.6 143.5,251.6 	"/>
	<path class="st1" d="M84.4,356.9c0.7-2,6.7-20.5,6.7-20.5c0.7-2.2,3.2-1.9,3.5-1.9h32.5l-4.1-11.1H98.2c-1.7,0-2.2-1.6-1.9-2.9
		c0.5-1.7,12-36.4,12-36.4l-6.6-17.8L69,357.7c-0.6,1.4-0.8,2.4-3.5,2.4H51.7v11.1H98v-11.1c0,0-10.7,0-11.9,0
		C84.8,360.2,83.7,358.9,84.4,356.9"/>
</g>
</svg>
